# xmcd
#
# Track frame offsets:
#	150
#	26131
#	50966
#	74882
#	93163
#	120499
#	143633
#	166247
#	187596
#	208663
#
# Disc length: 3053 seconds
#
# Revision: 0
# Processed by: cddbd v1.5.1PL0 Copyright (c) Steve Scherf et al.
# Submitted via: dBpowerAMP V4.0
#
DISCID=8d0beb0a
DTITLE=Bor Srey Near - Power Of Love
DYEAR=2004
DGENRE=Country
TTITLE0=Power Of Love
TTITLE1=I Saw You
TTITLE2=One More Day
TTITLE3=From This Moment
TTITLE4=Jealousy
TTITLE5=Promise Me
TTITLE6=I Could Fall In Love
TTITLE7=Falling Leaves
TTITLE8=One Day
TTITLE9=Forever With You
EXTD=Power Of Love
EXTT0=
EXTT1=
EXTT2=
EXTT3=
EXTT4=
EXTT5=
EXTT6=
EXTT7=
EXTT8=
EXTT9=
PLAYORDER=
